<svg width="28" height="38" viewBox="0 0 28 38" fill="none" xmlns="http://www.w3.org/2000/svg">
<path fill-rule="evenodd" clip-rule="evenodd" d="M13.9994 -1.03712e-05C19.1539 -1.03712e-05 23.3323 3.65627 23.3323 8.16671V17.4996H24.4989C26.4319 17.4996 27.9988 19.0663 27.9988 20.9997V33.8321C27.9988 35.7648 26.4319 37.3322 24.4989 37.3322H3.49988C1.56694 37.3322 -1.58548e-05 35.7648 -1.58548e-05 33.8321V20.9997C-1.58548e-05 19.0663 1.56694 17.4996 3.49988 17.4996H4.66648V8.16671C4.66648 3.65627 8.84497 -1.03712e-05 13.9994 -1.03712e-05ZM18.4001 17.4996H9.59855C9.4265 17.1346 9.33288 16.7417 9.33288 16.3325V8.16671C9.33288 6.23403 11.4222 4.66655 13.9994 4.66655C16.5766 4.66655 18.6658 6.23403 18.6658 8.16671V16.3325C18.6658 16.7417 18.5722 17.1346 18.4001 17.4996ZM16.3326 29.7079C17.7274 28.9009 18.6658 27.3926 18.6658 25.6653C18.6658 23.089 16.5766 20.9997 13.9994 20.9997C11.4222 20.9997 9.33288 23.089 9.33288 25.6653C9.33288 27.3927 10.2714 28.9009 11.6662 29.7079V31.4984C11.6662 32.788 12.7108 33.8321 13.9994 33.8321C15.2881 33.8321 16.3326 32.788 16.3326 31.4984V29.7079Z" fill="#FED136"/>
</svg>
